<?xml version="1.0" standalone="no"?>
<!DOCTYPE svg PUBLIC "-//W3C//DTD SVG 20010904//EN"
 "http://www.w3.org/TR/2001/REC-SVG-20010904/DTD/svg10.dtd">
<svg version="1.0" xmlns="http://www.w3.org/2000/svg"
 width="1280.000000pt" height="968.000000pt" viewBox="0 0 1280.000000 968.000000"
 preserveAspectRatio="xMidYMid meet">
<g transform="translate(0.000000,968.000000) scale(0.100000,-0.100000)"
fill="#000000" stroke="none">
<path d="M6365 8565 c-264 -31 -518 -168 -678 -366 -98 -122 -128 -202 -178
-479 -29 -162 -45 -230 -129 -555 -101 -390 -7 -606 345 -800 38 -21 80 -49
92 -61 23 -23 32 -74 13 -74 -6 0 -82 36 -170 80 -87 44 -205 100 -262 126
-108 49 -614 242 -754 288 -66 22 -97 40 -175 102 -188 151 -283 203 -386 212
-62 5 -65 6 -146 78 -45 40 -96 81 -113 90 -39 21 -81 12 -96 -21 -15 -34 16
-81 106 -157 39 -34 74 -66 78 -71 3 -6 -6 -36 -22 -66 -44 -89 -51 -124 -34
-181 19 -65 36 -80 89 -80 24 0 47 -4 50 -10 13 -21 78 -11 108 18 27 25 34
27 110 26 123 -2 237 -41 477 -163 200 -102 449 -210 601 -263 104 -35 144
-56 282 -146 88 -58 194 -120 234 -139 41 -19 76 -40 79 -47 3 -7 -9 -80 -26
-162 -24 -113 -33 -187 -37 -304 -9 -239 19 -348 147 -580 38 -69 78 -150 90
-180 12 -30 38 -81 57 -114 l36 -58 -17 -97 c-37 -212 -44 -516 -22 -896 12
-197 16 -226 39 -280 14 -33 30 -87 36 -120 20 -114 53 -480 54 -600 0 -102
-3 -126 -20 -160 -32 -60 -159 -168 -348 -295 -167 -111 -215 -166 -215 -244
0 -51 16 -79 62 -109 102 -66 291 -45 604 69 175 63 202 78 222 122 15 33 17
85 17 447 0 342 -3 430 -18 528 -21 138 -58 291 -82 338 -33 63 -35 86 -15
207 10 64 28 189 40 277 20 151 33 197 44 164 3 -8 17 -75 31 -149 15 -74 44
-216 66 -315 22 -99 49 -232 60 -295 17 -98 26 -127 69 -206 64 -119 87 -189
175 -538 89 -352 111 -476 96 -532 -25 -92 -131 -216 -296 -344 -160 -125
-195 -169 -195 -245 0 -56 15 -81 62 -100 123 -51 438 15 701 146 146 74 147
75 147 206 -1 75 -8 144 -25 223 -45 215 -64 315 -85 450 -25 157 -88 414
-132 539 -16 47 -51 126 -76 175 l-46 89 -7 216 c-4 119 -10 248 -13 286 -21
253 -50 552 -67 685 -10 85 -19 214 -19 286 0 72 -5 156 -10 185 -15 81 -70
186 -138 264 -69 78 -235 306 -276 376 -24 42 -34 79 -21 79 12 0 162 -110
186 -137 15 -15 94 -129 177 -253 82 -124 189 -279 237 -345 214 -294 220
-306 204 -436 -9 -68 -9 -107 0 -159 6 -38 11 -117 11 -175 0 -104 1 -107 29
-136 35 -34 59 -36 94 -9 26 20 47 88 47 150 0 69 49 38 147 -92 38 -51 84
-114 101 -139 17 -25 42 -53 56 -62 33 -22 79 -21 99 1 40 44 12 107 -112 251
-39 46 -71 87 -71 92 0 5 8 13 17 16 19 8 81 -56 168 -173 65 -88 127 -124
175 -104 34 14 46 45 35 87 -4 17 -59 81 -136 158 -121 123 -150 165 -114 165
15 0 82 -49 214 -157 85 -69 126 -89 158 -74 30 14 43 48 31 83 -11 30 -70 87
-140 133 -110 74 -197 141 -198 153 0 20 14 14 94 -38 113 -74 152 -92 194
-88 29 2 40 9 50 30 26 55 -20 101 -168 167 -85 39 -174 86 -275 148 -79 49
-114 61 -221 73 -49 5 -82 14 -95 26 -22 20 -240 318 -404 554 -176 251 -238
330 -340 430 -114 112 -305 326 -305 342 0 7 -31 68 -69 137 -76 140 -105 213
-96 248 4 17 68 65 223 167 256 170 391 276 527 417 249 257 397 526 445 803
22 128 2 244 -65 382 -157 323 -506 566 -845 590 -41 2 -88 6 -105 8 -16 1
-75 -3 -130 -9z"/>
</g>
</svg>
